<?xml version="1.0" encoding="UTF-8" ?>
<!DOCTYPE svg PUBLIC "-//W3C//DTD SVG 1.1//EN" "http://www.w3.org/Graphics/SVG/1.1/DTD/svg11.dtd">
<svg width="600pt" height="600pt" viewBox="0 0 600 600" version="1.1" xmlns="http://www.w3.org/2000/svg">
<path fill="#fefefe" d=" M 0.00 0.00 L 6.63 0.00 C 24.05 26.44 41.09 53.11 58.27 79.71 C 78.51 111.14 98.38 142.81 118.98 174.02 C 128.26 188.34 137.65 202.59 146.87 216.95 C 148.97 222.25 152.18 226.98 154.87 231.97 C 149.07 225.34 145.36 217.13 139.01 210.95 C 127.95 194.74 116.66 178.68 105.46 162.56 C 84.70 132.58 64.37 102.31 43.64 72.30 C 29.12 51.23 14.46 30.25 0.00 9.14 L 0.00 0.00 Z" />
<path fill="#000000" d=" M 6.63 0.00 L 600.00 0.00 L 600.00 600.00 L 106.50 600.00 C 110.76 587.04 114.87 574.03 119.03 561.03 C 122.22 554.09 124.14 546.67 126.50 539.43 C 134.09 515.67 141.66 491.90 149.04 468.08 C 151.38 460.16 154.44 452.46 156.48 444.45 C 163.72 419.97 171.59 395.68 179.18 371.30 C 180.13 368.19 180.47 364.95 180.80 361.73 C 180.97 361.08 181.32 359.80 181.49 359.15 C 181.75 358.42 182.01 357.70 182.29 356.99 C 182.69 360.32 183.11 363.66 183.73 366.96 C 185.04 366.07 187.28 365.70 187.33 363.75 C 188.18 355.75 186.41 347.55 188.40 339.65 C 190.19 332.53 192.48 325.54 194.72 318.55 C 195.54 316.18 195.58 313.65 195.40 311.18 C 191.58 317.11 190.87 324.43 186.98 330.33 C 186.87 323.16 187.58 316.00 187.14 308.83 C 193.29 309.00 199.35 310.02 205.23 311.81 C 205.39 310.37 205.58 308.94 205.80 307.52 C 206.92 303.83 207.12 299.63 210.09 296.83 C 210.82 301.51 211.85 306.13 212.87 310.76 C 216.73 311.32 219.30 308.20 221.91 305.90 C 225.86 302.25 229.95 298.71 234.49 295.79 C 234.60 303.20 234.91 310.64 234.29 318.03 C 232.18 330.85 230.13 343.69 227.85 356.49 C 227.15 360.88 225.44 365.48 226.83 369.90 C 227.60 372.73 230.38 371.06 232.27 370.57 C 232.24 365.05 232.05 359.51 232.71 354.02 C 233.51 349.39 234.41 344.78 234.97 340.11 C 235.53 338.62 236.13 337.15 236.71 335.67 C 237.24 335.77 237.78 335.87 238.32 335.98 C 239.98 337.46 241.85 338.67 244.10 338.99 C 245.07 334.96 247.47 331.57 249.14 327.85 C 250.62 320.31 252.58 312.77 256.03 305.86 C 258.52 302.50 262.26 300.01 263.66 295.86 C 265.37 290.74 267.15 285.61 270.19 281.08 C 273.07 284.02 275.54 287.35 277.58 290.93 C 281.03 296.63 284.40 302.41 288.56 307.64 C 284.16 309.40 279.31 308.18 274.72 308.46 C 270.60 308.17 266.45 308.02 262.35 308.54 C 261.78 311.48 263.25 313.88 265.78 315.25 C 271.17 319.65 277.57 322.56 282.98 326.94 C 291.34 332.81 298.89 339.72 306.56 346.45 C 310.12 349.45 311.71 354.07 315.16 357.15 C 316.83 357.61 318.59 357.58 320.31 357.75 C 320.99 355.92 322.03 354.01 321.42 352.00 C 319.69 349.05 316.67 347.18 314.76 344.38 C 312.40 340.12 311.95 334.98 309.06 330.98 C 306.14 326.90 303.54 322.58 301.64 317.93 C 306.37 315.24 311.32 312.18 316.97 312.37 C 323.19 311.37 329.72 310.99 335.42 308.06 C 335.24 313.77 336.58 319.36 336.54 325.07 C 336.47 328.49 337.69 331.72 338.30 335.04 C 338.70 338.98 338.27 342.95 338.45 346.91 C 338.19 349.79 341.30 351.94 343.97 351.74 C 347.36 351.97 349.46 348.08 352.93 348.55 C 374.57 347.98 396.24 348.43 417.89 348.28 C 420.34 348.23 423.46 346.86 423.43 344.00 C 422.99 338.27 427.18 333.89 428.97 328.79 C 430.11 326.60 428.44 323.67 426.11 323.16 C 413.19 319.50 400.84 314.15 388.17 309.75 C 378.16 307.67 368.21 305.25 358.26 302.84 C 354.19 302.06 348.89 301.24 346.34 305.43 C 342.94 299.70 344.49 292.68 343.50 286.37 C 342.99 288.96 342.70 291.59 342.57 294.23 C 342.58 282.12 340.74 270.12 340.17 258.03 C 339.01 252.32 339.97 246.40 338.87 240.73 C 337.73 235.14 328.73 236.63 327.56 241.40 C 327.09 251.93 328.28 262.56 326.37 272.98 C 326.35 282.41 326.39 291.83 326.37 301.26 C 321.58 302.32 316.91 303.87 312.06 304.64 C 306.95 305.62 303.07 309.64 297.99 310.62 C 294.71 307.79 293.63 303.31 290.94 300.00 C 287.01 295.25 284.18 289.75 280.93 284.54 C 278.58 280.93 276.70 276.73 273.02 274.27 C 270.62 274.02 268.14 274.70 266.50 276.53 C 263.01 280.57 260.62 285.45 259.23 290.59 C 258.13 295.33 253.70 298.05 251.67 302.28 C 250.96 300.84 250.19 299.42 249.44 298.00 C 251.19 291.83 252.66 285.47 252.58 279.02 C 253.59 264.69 256.23 250.42 255.52 236.00 C 255.33 229.68 255.86 223.34 255.26 217.04 C 253.95 215.23 251.33 214.80 250.11 216.94 C 245.52 223.82 245.87 232.48 243.74 240.22 C 242.28 245.35 242.73 250.74 241.84 255.96 C 241.11 262.63 240.50 269.30 239.66 275.95 C 239.27 279.68 239.87 283.66 238.16 287.14 C 231.09 292.61 224.65 298.84 217.82 304.61 C 213.10 299.65 214.92 292.12 211.93 286.29 C 206.93 289.36 205.60 295.48 201.96 299.76 C 200.17 298.60 198.26 297.42 197.26 295.45 C 192.69 287.50 187.84 279.70 183.22 271.78 C 181.43 268.63 179.15 265.83 176.75 263.14 C 166.48 247.95 158.05 231.52 146.87 216.95 C 137.65 202.59 128.26 188.34 118.98 174.02 C 98.38 142.81 78.51 111.14 58.27 79.71 C 41.09 53.11 24.05 26.44 6.63 0.00 Z" />
<path fill="#000000" d=" M 0.00 9.14 C 14.46 30.25 29.12 51.23 43.64 72.30 C 64.37 102.31 84.70 132.58 105.46 162.56 C 116.66 178.68 127.95 194.74 139.01 210.95 C 143.27 219.11 149.07 226.32 154.00 234.07 C 161.82 246.13 170.31 257.74 178.10 269.81 C 180.62 275.22 184.27 279.96 187.86 284.69 C 186.53 284.63 185.21 284.57 183.90 284.51 C 181.71 290.71 182.82 297.37 181.86 303.76 C 180.95 302.46 179.90 301.22 179.34 299.71 C 177.01 292.46 176.76 284.72 174.60 277.43 C 174.18 275.52 171.90 275.59 170.46 274.89 C 170.22 279.87 170.29 284.94 168.72 289.72 C 167.07 294.79 166.86 300.19 167.38 305.46 C 167.71 305.64 168.37 306.00 168.69 306.17 C 171.34 306.76 174.03 307.16 176.74 307.41 C 176.83 311.18 177.45 314.90 178.16 318.60 C 179.35 324.83 179.90 331.18 181.50 337.34 C 181.37 341.68 182.76 346.12 181.36 350.37 C 180.60 352.89 179.60 355.34 178.84 357.86 C 178.32 359.62 177.80 361.38 177.28 363.15 C 174.85 368.32 173.06 373.74 171.31 379.17 C 154.56 429.43 136.90 479.39 119.61 529.46 C 118.97 531.59 118.53 533.78 118.02 535.96 C 110.60 557.32 102.54 578.46 95.62 600.00 L 0.00 600.00 L 0.00 9.14 Z" />
<path fill="#a5a5a5" d=" M 139.01 210.95 C 145.36 217.13 149.07 225.34 154.87 231.97 C 152.18 226.98 148.97 222.25 146.87 216.95 C 158.05 231.52 166.48 247.95 176.75 263.14 C 178.17 266.03 179.49 268.97 180.92 271.86 C 179.97 271.18 179.02 270.51 178.10 269.81 C 170.31 257.74 161.82 246.13 154.00 234.07 C 149.07 226.32 143.27 219.11 139.01 210.95 Z" />
<path fill="#f6f6f6" d=" M 250.11 216.94 C 251.33 214.80 253.95 215.23 255.26 217.04 C 255.86 223.34 255.33 229.68 255.52 236.00 C 256.23 250.42 253.59 264.69 252.58 279.02 C 252.66 285.47 251.19 291.83 249.44 298.00 C 247.72 302.60 246.71 307.45 246.79 312.38 C 249.88 309.88 251.07 306.06 251.67 302.28 C 253.70 298.05 258.13 295.33 259.23 290.59 C 260.62 285.45 263.01 280.57 266.50 276.53 C 268.14 274.70 270.62 274.02 273.02 274.27 C 276.70 276.73 278.58 280.93 280.93 284.54 C 279.64 286.58 278.54 288.72 277.58 290.93 C 275.54 287.35 273.07 284.02 270.19 281.08 C 267.15 285.61 265.37 290.74 263.66 295.86 C 262.26 300.01 258.52 302.50 256.03 305.86 C 252.58 312.77 250.62 320.31 249.14 327.85 C 247.47 331.57 245.07 334.96 244.10 338.99 C 241.85 338.67 239.98 337.46 238.32 335.98 C 239.14 331.91 239.90 327.83 240.91 323.81 C 243.79 313.38 244.72 302.56 246.94 292.00 C 248.66 284.07 248.70 275.94 249.61 267.91 C 250.63 255.24 253.15 242.39 250.69 229.73 C 249.07 232.48 248.06 235.54 247.66 238.70 C 245.86 250.61 244.88 262.61 243.56 274.57 C 242.86 283.46 241.02 292.20 240.26 301.08 C 238.51 314.09 236.21 327.04 234.97 340.11 C 234.41 344.78 233.51 349.39 232.71 354.02 C 232.05 359.51 232.24 365.05 232.27 370.57 C 230.38 371.06 227.60 372.73 226.83 369.90 C 225.44 365.48 227.15 360.88 227.85 356.49 C 230.13 343.69 232.18 330.85 234.29 318.03 C 234.91 310.64 234.60 303.20 234.49 295.79 C 229.95 298.71 225.86 302.25 221.91 305.90 C 219.30 308.20 216.73 311.32 212.87 310.76 C 211.85 306.13 210.82 301.51 210.09 296.83 C 207.12 299.63 206.92 303.83 205.80 307.52 C 198.93 309.62 191.82 307.49 184.87 307.10 C 184.37 306.29 183.88 305.49 183.38 304.70 C 187.40 304.92 191.43 305.08 195.45 304.82 C 195.01 303.29 194.60 301.75 194.05 300.26 C 192.24 297.05 189.93 294.17 187.75 291.22 C 186.66 289.58 185.79 287.81 184.87 286.08 C 188.84 287.53 191.09 291.30 193.33 294.63 C 195.66 298.14 197.51 301.96 198.87 305.95 C 200.69 305.43 202.50 304.85 204.33 304.32 C 203.53 297.99 208.00 292.87 211.15 287.88 C 213.02 293.90 213.55 300.24 215.52 306.24 C 216.28 305.68 217.06 305.15 217.82 304.61 C 224.65 298.84 231.09 292.61 238.16 287.14 C 239.87 283.66 239.27 279.68 239.66 275.95 C 240.50 269.30 241.11 262.63 241.84 255.96 C 242.73 250.74 242.28 245.35 243.74 240.22 C 245.87 232.48 245.52 223.82 250.11 216.94 Z" />
<path fill="#878787" d=" M 247.66 238.70 C 248.06 235.54 249.07 232.48 250.69 229.73 C 253.15 242.39 250.63 255.24 249.61 267.91 C 248.70 275.94 248.66 284.07 246.94 292.00 C 244.72 302.56 243.79 313.38 240.91 323.81 C 239.90 327.83 239.14 331.91 238.32 335.98 C 237.78 335.87 237.24 335.77 236.71 335.67 C 236.13 337.15 235.53 338.62 234.97 340.11 C 236.21 327.04 238.51 314.09 240.26 301.08 C 241.02 292.20 242.86 283.46 243.56 274.57 C 244.88 262.61 245.86 250.61 247.66 238.70 Z" />
<path fill="#ffffff" d=" M 327.56 241.40 C 328.73 236.63 337.73 235.14 338.87 240.73 C 339.97 246.40 339.01 252.32 340.17 258.03 C 340.74 270.12 342.58 282.12 342.57 294.23 C 342.71 299.44 343.57 304.61 343.58 309.83 C 344.17 309.79 345.36 309.72 345.96 309.68 C 346.12 308.26 346.26 306.84 346.34 305.43 C 348.89 301.24 354.19 302.06 358.26 302.84 C 368.21 305.25 378.16 307.67 388.17 309.75 C 400.84 314.15 413.19 319.50 426.11 323.16 C 428.44 323.67 430.11 326.60 428.97 328.79 C 427.18 333.89 422.99 338.27 423.43 344.00 C 423.46 346.86 420.34 348.23 417.89 348.28 C 396.24 348.43 374.57 347.98 352.93 348.55 C 349.46 348.08 347.36 351.97 343.97 351.74 C 341.30 351.94 338.19 349.79 338.45 346.91 C 338.27 342.95 338.70 338.98 338.30 335.04 C 337.69 331.72 336.47 328.49 336.54 325.07 C 336.58 319.36 335.24 313.77 335.42 308.06 C 329.72 310.99 323.19 311.37 316.97 312.37 C 311.32 312.18 306.37 315.24 301.64 317.93 C 303.54 322.58 306.14 326.90 309.06 330.98 C 311.95 334.98 312.40 340.12 314.76 344.38 C 316.67 347.18 319.69 349.05 321.42 352.00 C 322.03 354.01 320.99 355.92 320.31 357.75 C 318.59 357.58 316.83 357.61 315.16 357.15 C 311.71 354.07 310.12 349.45 306.56 346.45 C 298.89 339.72 291.34 332.81 282.98 326.94 C 277.57 322.56 271.17 319.65 265.78 315.25 C 263.25 313.88 261.78 311.48 262.35 308.54 C 266.45 308.02 270.60 308.17 274.72 308.46 C 279.64 309.87 284.81 310.51 289.88 309.50 C 289.55 309.03 288.89 308.10 288.56 307.64 C 284.40 302.41 281.03 296.63 277.58 290.93 C 278.54 288.72 279.64 286.58 280.93 284.54 C 284.18 289.75 287.01 295.25 290.94 300.00 C 293.63 303.31 294.71 307.79 297.99 310.62 C 303.07 309.64 306.95 305.62 312.06 304.64 C 316.91 303.87 321.58 302.32 326.37 301.26 C 326.39 291.83 326.35 282.41 326.37 272.98 C 328.28 262.56 327.09 251.93 327.56 241.40 Z" />
<path fill="#1e1e1e" d=" M 247.68 246.77 C 247.92 244.06 248.57 241.42 249.61 238.92 C 251.37 244.25 249.81 249.79 249.45 255.20 C 247.66 270.75 247.72 286.62 243.62 301.81 C 243.21 302.93 242.76 304.03 242.32 305.13 C 242.20 303.04 242.09 300.95 242.06 298.86 C 242.09 292.50 243.61 286.29 244.23 279.98 C 245.29 268.90 246.60 257.85 247.68 246.77 Z" />
<path fill="#424242" d=" M 176.75 263.14 C 179.15 265.83 181.43 268.63 183.22 271.78 C 187.84 279.70 192.69 287.50 197.26 295.45 C 198.26 297.42 200.17 298.60 201.96 299.76 C 205.60 295.48 206.93 289.36 211.93 286.29 C 214.92 292.12 213.10 299.65 217.82 304.61 C 217.06 305.15 216.28 305.68 215.52 306.24 C 213.55 300.24 213.02 293.90 211.15 287.88 C 208.00 292.87 203.53 297.99 204.33 304.32 C 202.50 304.85 200.69 305.43 198.87 305.95 C 197.51 301.96 195.66 298.14 193.33 294.63 C 191.09 291.30 188.84 287.53 184.87 286.08 L 184.17 285.70 C 183.49 292.01 183.54 298.36 183.38 304.70 C 181.87 304.27 180.33 303.89 178.91 303.21 C 175.20 294.52 176.44 284.42 172.00 276.02 C 171.23 286.12 168.37 296.00 168.69 306.17 C 168.37 306.00 167.71 305.64 167.38 305.46 C 166.86 300.19 167.07 294.79 168.72 289.72 C 170.29 284.94 170.22 279.87 170.46 274.89 C 171.90 275.59 174.18 275.52 174.60 277.43 C 176.76 284.72 177.01 292.46 179.34 299.71 C 179.90 301.22 180.95 302.46 181.86 303.76 C 182.82 297.37 181.71 290.71 183.90 284.51 C 185.21 284.57 186.53 284.63 187.86 284.69 C 184.27 279.96 180.62 275.22 178.10 269.81 C 179.02 270.51 179.97 271.18 180.92 271.86 C 179.49 268.97 178.17 266.03 176.75 263.14 Z" />
<path fill="#b3b3b3" d=" M 168.69 306.17 C 168.37 296.00 171.23 286.12 172.00 276.02 C 176.44 284.42 175.20 294.52 178.91 303.21 C 180.33 303.89 181.87 304.27 183.38 304.70 C 183.88 305.49 184.37 306.29 184.87 307.10 C 191.82 307.49 198.93 309.62 205.80 307.52 C 205.58 308.94 205.39 310.37 205.23 311.81 C 199.35 310.02 193.29 309.00 187.14 308.83 L 186.07 308.83 C 185.93 315.24 186.04 321.65 185.95 328.05 C 185.80 330.53 187.26 332.64 187.91 334.94 C 187.98 336.67 187.18 338.30 186.79 339.96 C 186.78 338.73 186.77 337.49 186.74 336.27 C 186.03 336.26 184.62 336.24 183.92 336.24 C 183.76 340.92 183.51 345.60 183.34 350.29 C 183.24 345.62 182.76 340.96 181.73 336.41 C 183.74 326.81 184.50 316.84 183.50 307.08 C 181.98 307.23 180.46 307.39 178.94 307.50 C 178.39 307.48 177.29 307.43 176.74 307.41 C 174.03 307.16 171.34 306.76 168.69 306.17 Z" />
<path fill="#acacac" d=" M 184.17 285.70 L 184.87 286.08 C 185.79 287.81 186.66 289.58 187.75 291.22 C 186.25 295.10 186.47 299.29 186.69 303.37 C 189.30 303.54 191.91 303.69 194.53 303.84 C 194.39 302.64 194.23 301.45 194.05 300.26 C 194.60 301.75 195.01 303.29 195.45 304.82 C 191.43 305.08 187.40 304.92 183.38 304.70 C 183.54 298.36 183.49 292.01 184.17 285.70 Z" />
<path fill="#565656" d=" M 342.57 294.23 C 342.70 291.59 342.99 288.96 343.50 286.37 C 344.49 292.68 342.94 299.70 346.34 305.43 C 346.26 306.84 346.12 308.26 345.96 309.68 C 345.36 309.72 344.17 309.79 343.58 309.83 C 343.57 304.61 342.71 299.44 342.57 294.23 Z" />
<path fill="#121212" d=" M 171.29 303.41 C 171.76 299.55 170.12 294.86 173.19 291.80 C 174.12 295.51 175.16 299.23 175.46 303.06 C 174.40 304.74 172.76 303.89 171.29 303.41 Z" />
<path fill="#050505" d=" M 186.69 303.37 C 186.47 299.29 186.25 295.10 187.75 291.22 C 189.93 294.17 192.24 297.05 194.05 300.26 C 194.23 301.45 194.39 302.64 194.53 303.84 C 191.91 303.69 189.30 303.54 186.69 303.37 Z" />
<path fill="#7f7f7f" d=" M 246.79 312.38 C 246.71 307.45 247.72 302.60 249.44 298.00 C 250.19 299.42 250.96 300.84 251.67 302.28 C 251.07 306.06 249.88 309.88 246.79 312.38 Z" />
<path fill="#383838" d=" M 239.12 322.17 C 238.31 314.29 241.09 306.62 242.06 298.86 C 242.09 300.95 242.20 303.04 242.32 305.13 C 242.76 304.03 243.21 302.93 243.62 301.81 C 242.62 308.62 243.01 316.21 239.12 322.17 Z" />
<path fill="#080808" d=" M 178.94 307.50 C 180.46 307.39 181.98 307.23 183.50 307.08 C 183.20 311.49 182.80 315.89 182.30 320.28 C 181.26 316.00 180.89 311.51 178.94 307.50 Z" />
<path fill="#848484" d=" M 183.50 307.08 C 184.50 316.84 183.74 326.81 181.73 336.41 L 181.50 337.34 C 179.90 331.18 179.35 324.83 178.16 318.60 C 177.45 314.90 176.83 311.18 176.74 307.41 C 177.29 307.43 178.39 307.48 178.94 307.50 C 180.89 311.51 181.26 316.00 182.30 320.28 C 182.80 315.89 183.20 311.49 183.50 307.08 Z" />
<path fill="#b8b8b8" d=" M 288.56 307.64 C 288.89 308.10 289.55 309.03 289.88 309.50 C 284.81 310.51 279.64 309.87 274.72 308.46 C 279.31 308.18 284.16 309.40 288.56 307.64 Z" />
<path fill="#717171" d=" M 186.07 308.83 L 187.14 308.83 C 187.58 316.00 186.87 323.16 186.98 330.33 C 190.87 324.43 191.58 317.11 195.40 311.18 C 195.58 313.65 195.54 316.18 194.72 318.55 C 192.48 325.54 190.19 332.53 188.40 339.65 C 186.41 347.55 188.18 355.75 187.33 363.75 C 187.28 365.70 185.04 366.07 183.73 366.96 C 183.11 363.66 182.69 360.32 182.29 356.99 C 182.01 357.70 181.75 358.42 181.49 359.15 C 181.39 358.44 181.17 357.02 181.06 356.31 C 180.32 356.82 179.58 357.34 178.84 357.86 C 179.60 355.34 180.60 352.89 181.36 350.37 C 182.76 346.12 181.37 341.68 181.50 337.34 L 181.73 336.41 C 182.76 340.96 183.24 345.62 183.34 350.29 C 183.41 354.81 184.27 359.27 184.50 363.79 C 184.79 363.76 185.38 363.71 185.67 363.69 C 185.73 355.78 184.88 347.72 186.79 339.96 C 187.18 338.30 187.98 336.67 187.91 334.94 C 187.26 332.64 185.80 330.53 185.95 328.05 C 186.04 321.65 185.93 315.24 186.07 308.83 Z" />
<path fill="#000000" d=" M 354.39 312.22 C 362.91 313.22 371.13 316.00 379.54 317.66 C 386.38 318.89 392.78 321.68 399.29 324.00 C 405.19 326.17 411.12 328.25 416.99 330.50 C 416.41 333.43 414.80 335.98 413.22 338.47 C 392.25 338.53 371.27 338.20 350.31 338.62 C 350.19 332.14 351.10 325.76 351.67 319.34 C 352.55 316.95 353.60 314.64 354.39 312.22 Z" />
<path fill="#9f9f9f" d=" M 279.28 315.41 C 283.53 315.49 287.86 315.07 292.04 316.03 C 295.05 316.80 296.21 320.00 297.69 322.38 C 300.18 327.20 303.76 331.54 305.04 336.92 C 301.95 335.12 299.38 332.63 296.73 330.27 C 293.55 327.42 289.53 325.42 287.13 321.76 C 292.15 324.69 296.58 328.47 301.23 331.92 C 298.89 327.28 296.90 322.32 293.49 318.35 C 290.09 316.63 285.93 317.27 282.31 318.08 C 281.35 318.39 280.36 318.09 279.40 317.95 C 279.37 317.32 279.31 316.05 279.28 315.41 Z" />
<path fill="#040404" d=" M 282.31 318.08 C 285.93 317.27 290.09 316.63 293.49 318.35 C 296.90 322.32 298.89 327.28 301.23 331.92 C 296.58 328.47 292.15 324.69 287.13 321.76 C 285.42 320.67 283.87 319.36 282.31 318.08 Z" />
<path fill="#f6f6f6" d=" M 183.92 336.24 C 184.62 336.24 186.03 336.26 186.74 336.27 C 186.77 337.49 186.78 338.73 186.79 339.96 C 184.88 347.72 185.73 355.78 185.67 363.69 C 185.38 363.71 184.79 363.76 184.50 363.79 C 184.27 359.27 183.41 354.81 183.34 350.29 C 183.51 345.60 183.76 340.92 183.92 336.24 Z" />
<path fill="#bcbcbc" d=" M 178.84 357.86 C 179.58 357.34 180.32 356.82 181.06 356.31 C 181.17 357.02 181.39 358.44 181.49 359.15 C 181.32 359.80 180.97 361.08 180.80 361.73 C 177.51 369.60 176.00 378.05 172.89 385.98 C 172.28 385.30 171.67 384.62 171.06 383.95 C 172.98 376.96 175.85 370.26 177.28 363.15 C 177.80 361.38 178.32 359.62 178.84 357.86 Z" />
<path fill="#6d6d6d" d=" M 172.89 385.98 C 176.00 378.05 177.51 369.60 180.80 361.73 C 180.47 364.95 180.13 368.19 179.18 371.30 C 171.59 395.68 163.72 419.97 156.48 444.45 C 154.44 452.46 151.38 460.16 149.04 468.08 C 141.66 491.90 134.09 515.67 126.50 539.43 C 124.14 546.67 122.22 554.09 119.03 561.03 C 120.54 553.04 123.50 545.44 125.77 537.66 C 134.75 509.16 143.42 480.57 152.39 452.07 C 159.54 430.14 165.90 407.96 172.89 385.98 Z" />
<path fill="#6a6a6a" d=" M 171.31 379.17 C 173.06 373.74 174.85 368.32 177.28 363.15 C 175.85 370.26 172.98 376.96 171.06 383.95 C 164.01 405.86 156.38 427.59 148.98 449.38 C 141.68 471.11 133.84 492.64 126.24 514.26 C 123.56 521.52 121.33 528.95 118.02 535.96 C 118.53 533.78 118.97 531.59 119.61 529.46 C 136.90 479.39 154.56 429.43 171.31 379.17 Z" />
<path fill="#f1f1f1" d=" M 171.06 383.95 C 171.67 384.62 172.28 385.30 172.89 385.98 C 165.90 407.96 159.54 430.14 152.39 452.07 C 151.25 451.16 150.12 450.27 148.98 449.38 C 156.38 427.59 164.01 405.86 171.06 383.95 Z" />
<path fill="#fefefe" d=" M 126.24 514.26 C 133.84 492.64 141.68 471.11 148.98 449.38 C 150.12 450.27 151.25 451.16 152.39 452.07 C 143.42 480.57 134.75 509.16 125.77 537.66 C 123.50 545.44 120.54 553.04 119.03 561.03 C 114.87 574.03 110.76 587.04 106.50 600.00 L 95.62 600.00 C 102.54 578.46 110.60 557.32 118.02 535.96 C 121.33 528.95 123.56 521.52 126.24 514.26 Z" />
</svg>
